<?xml version="1.0" encoding="UTF-8"?>
<svg id="_レイヤー_2" data-name="レイヤー 2" xmlns="http://www.w3.org/2000/svg" viewBox="0 0 318.47 334.89">
  <defs>
    <style>
      .cls-1 {
        fill: #59ac51;
      }

      .cls-2 {
        fill: #79be62;
      }
    </style>
  </defs>
  <g id="_イラスト" data-name="イラスト">
    <g>
      <g>
        <path class="cls-1" d="M54.89,156.59C27.14,146.13,5.97,121.37.56,93.05c-.56-2.96-.95-6.08.1-8.95,1.19-3.24,4.03-5.64,6.82-7.79,12.74-9.83,27.37-18.04,43.39-20.48,14.17-2.16,28.64.32,42.11,4.69,36.78,11.94,67.91,38.54,84.53,72.25-43.07,10.43-76.07,41.35-122.63,23.8Z"/>
        <path class="cls-1" d="M296.69,95.08c19.63-22.23,26.74-54.03,18.26-81.58-.89-2.88-2-5.82-4.28-7.86-2.57-2.3-6.2-3.09-9.68-3.69-15.86-2.72-32.63-3.12-47.93,2.22-13.53,4.73-25.16,13.69-35.01,23.86-26.91,27.77-41.96,65.85-40.87,103.42,42.94-10.94,86.58.93,119.5-36.37Z"/>
      </g>
      <path class="cls-1" d="M155.29,334.89l-35.19-.18c47.96-45.98,84.73-134.65,51.1-203.26l13.26-6.02c38.69,78.94,25.07,157.46-29.17,209.46Z"/>
      <path class="cls-2" d="M222.02,71.73c8.99-8.41,25.12-18.63,37.42-18.34-7.5,2.23-14.23,6.55-20.26,11.53-12.18,10.05-21.68,22.73-31.38,35.06-7.35,9.34-16.35,23.92-27.2,29.13,5.43-21.46,26-42.97,41.41-57.38Z"/>
      <path class="cls-2" d="M149.05,110.86c-2.59-2.21-5.2-4.43-8.07-6.25-3.67-2.33-7.72-3.98-11.85-5.31-16.63-5.35-34.88-5.53-51.61-.5,8.71,1.2,17.41,2.39,26.12,3.59,7.24,1,14.55,2.01,21.41,4.56,3.69,1.37,7.2,3.17,10.7,4.96,12.93,6.62,25.76,13.53,38.83,19.87-8.6-6.88-17.13-13.77-25.53-20.93Z"/>
    </g>
  </g>
</svg>